<svg width="640" height="420" viewBox="0 0 640 420" fill="none" xmlns="http://www.w3.org/2000/svg"><rect width="640" height="420" rx="28" fill="#F8EBD6"/><ellipse cx="526" cy="92" rx="124" ry="68" fill="#E3EAD9"/><ellipse cx="124" cy="338" rx="116" ry="64" fill="#EFE0C2"/><path d="M132 236C132 171 185 118 250 118H386C451 118 504 171 504 236V258H132V236Z" fill="#C78B56"/><path d="M156 232C156 180 198 138 250 138H386C438 138 480 180 480 232V254H156V232Z" fill="#F3D081"/><rect x="116" y="256" width="404" height="40" rx="20" fill="#8D6340"/><path d="M217 116C228 89 258 73 285 84C313 96 320 130 301 152" stroke="#D7A46E" stroke-width="10" stroke-linecap="round"/><path d="M304 97C315 70 345 54 372 65C400 77 407 111 388 133" stroke="#D7A46E" stroke-width="10" stroke-linecap="round"/><circle cx="233" cy="186" r="16" fill="#A46C3D"/><circle cx="319" cy="170" r="16" fill="#A46C3D"/><circle cx="397" cy="196" r="16" fill="#A46C3D"/><text x="42" y="64" fill="#6B4B33" font-family="Georgia, serif" font-size="34" font-weight="700">Bolos caseiros</text></svg>