<svg width="640" height="420" viewBox="0 0 640 420" fill="none" xmlns="http://www.w3.org/2000/svg"><rect width="640" height="420" rx="28" fill="#F9EEDD"/><ellipse cx="530" cy="94" rx="120" ry="66" fill="#E1EAD5"/><rect x="190" y="198" width="260" height="120" rx="30" fill="#FFF4E5" stroke="#D7B28D" stroke-width="8"/><path d="M206 214H434V244C434 294 393 334 343 334H297C247 334 206 294 206 244V214Z" fill="#F0D395"/><path d="M234 171C255 135 301 121 337 139C373 157 390 200 372 235H268C250 210 226 187 234 171Z" fill="#F4CE72"/><path d="M286 132C295 113 318 103 337 111" stroke="#7EA26B" stroke-width="8" stroke-linecap="round"/><circle cx="282" cy="248" r="9" fill="#A76F44"/><circle cx="320" cy="264" r="9" fill="#A76F44"/><circle cx="358" cy="248" r="9" fill="#A76F44"/><text x="42" y="64" fill="#6B4B33" font-family="Georgia, serif" font-size="34" font-weight="700">Doces leves</text></svg>